<?xml version="1.0" encoding="UTF-8"?>
<svg id="a" data-name="Layer 1" xmlns="http://www.w3.org/2000/svg" viewBox="0 0 159.78 168">
  <path d="M136.72,84.01l23.17-25.96-34.02-7.41,3.46-34.6-31.88,13.98L79.89,0l-17.56,30.02-31.87-13.98,3.46,34.6L-.11,58.03l23.16,25.96L-.11,109.95l34.01,7.41-3.46,34.6,31.88-13.97,17.57,30.02,17.56-30.02,31.87,13.98-3.46-34.6,34.02-7.4-23.16-25.96Zm6.09,16.75l-15.47-5.28-10.55-13.69,13.58,5.04,12.44,13.94Zm-50.02,32.09l-9.6,16.42v-17.01l9.97-14.53-.37,15.12Zm-22.52-84.87l-16.42-5.83-9.5-12.81,17.24,7.56,8.67,11.07Zm27.9-11.07l17.24-7.56-9.5,12.8-16.41,5.83,8.67-11.06Zm20.91,15.14l-8.33,11.8,.49-17.8,9.76-13.14-1.92,19.14Zm-39.2,73.35l-12.8-18.65,12.8-17.34,12.8,17.34-12.8,18.65Zm-24.02-53.12l-.62-22.64,21.34,7.58v22.03l-20.72-6.97Zm27.33-15.06l21.34-7.58-.62,22.64-20.72,6.97v-22.03Zm-42.49-5.18l-1.91-19.13,9.75,13.14,.49,17.79-8.32-11.8Zm33.85,33.49l-12.79,17.33-21.75-6.4,13.8-17.91,20.74,6.98Zm-7.93,32.19l9.98,14.54v17.01l-9.61-16.43-.36-15.12Zm18.63-32.19l20.74-6.98,13.8,17.91-21.75,6.4-12.79-17.33Zm62.2-23.44l-16.1,18.04-19.01-7.05,11.4-16.15,23.7,5.16Zm-55.32-28.13l-12.21,15.58-12.21-15.59,12.21-20.87,12.22,20.88ZM12.35,62.08l23.7-5.15,11.4,16.15-19.01,7.04L12.35,62.08Zm17.05,24.72l13.59-5.03-10.56,13.7-15.48,5.28,12.45-13.95Zm-11,20.43l16.12-5.5,17.21,5.07-14.4,4.55-18.92-4.12Zm22.15,10.02l19.28-6.09,.49,20.48-22.19,9.73,2.42-24.12Zm58.88,14.4l.5-20.49,19.27,6.1,2.41,24.12-22.19-9.73Zm23-20.29l-14.4-4.56,17.22-5.07,16.12,5.51-18.94,4.12Z" fill="#d10"/>
</svg>