<?xml version="1.0" encoding="UTF-8" standalone="no"?>
<svg
   viewBox="0 0 153 140"
   version="1.1"
   id="svg17"
   sodipodi:docname="zig.svg"
   width="153"
   height="140"
   inkscape:version="1.4 (e7c3feb, 2024-10-09)"
   xmlns:inkscape="http://www.inkscape.org/namespaces/inkscape"
   xmlns:sodipodi="http://sodipodi.sourceforge.net/DTD/sodipodi-0.dtd"
   xmlns="http://www.w3.org/2000/svg"
   xmlns:svg="http://www.w3.org/2000/svg">
  <defs
     id="defs17" />
  <sodipodi:namedview
     id="namedview17"
     pagecolor="#ffffff"
     bordercolor="#000000"
     borderopacity="0.25"
     inkscape:showpageshadow="2"
     inkscape:pageopacity="0.0"
     inkscape:pagecheckerboard="0"
     inkscape:deskcolor="#d1d1d1"
     inkscape:zoom="3.4925"
     inkscape:cx="200"
     inkscape:cy="69.863994"
     inkscape:window-width="3440"
     inkscape:window-height="1419"
     inkscape:window-x="0"
     inkscape:window-y="21"
     inkscape:window-maximized="1"
     inkscape:current-layer="svg17" />
  <g
     fill="#f7a41d"
     id="g12">
    <g
       id="g3">
      <polygon
         points="19,30 46,22 28,44 "
         id="polygon1" />
      <polygon
         points="28,44 22,44 22,95 31,95 20,100 12,117 0,117 0,22 46,22 33,33 "
         shape-rendering="crispEdges"
         id="polygon2" />
      <polygon
         points="4,106 31,95 12,117 "
         id="polygon3" />
    </g>
    <g
       id="g8">
      <polygon
         points="37,44 56,22 62,36 "
         id="polygon4" />
      <polygon
         points="111,44 37,44 56,32 56,22 111,22 "
         shape-rendering="crispEdges"
         id="polygon5" />
      <polygon
         points="90,104 116,95 97,117 "
         id="polygon6" />
      <polygon
         points="97,117 42,117 42,95 116,95 100,104 "
         shape-rendering="crispEdges"
         id="polygon7" />
      <polygon
         points="3,140 101,22 150,0 52,117 "
         id="polygon8" />
    </g>
    <g
       id="g11">
      <polygon
         points="122,45 141,22 140,40 "
         id="polygon9" />
      <polygon
         points="106,117 120,105 125,95 131,95 131,45 122,45 132,36 141,22 153,22 153,117 "
         shape-rendering="crispEdges"
         id="polygon10" />
      <polygon
         points="106,117 125,95 130,110 "
         id="polygon11" />
    </g>
  </g>
</svg>
